<svg xmlns="http://www.w3.org/2000/svg" width="180" height="240" viewBox="0 0 180 240">
  <rect width="180" height="240" fill="#f3f4f6" rx="4"/>
  <rect x="10" y="10" width="160" height="220" fill="#fff" rx="3" stroke="#e5e7eb" stroke-width="1"/>
  <rect x="10" y="10" width="160" height="32" fill="#1e3a5f" rx="3"/>
  <rect x="10" y="38" width="160" height="4" fill="#1e3a5f"/>
  <rect x="18" y="18" width="55" height="10" fill="#fff" rx="1" opacity="0.3"/>
  <rect x="80" y="16" width="70" height="6" fill="#fff" rx="1" opacity="0.4"/>
  <rect x="80" y="26" width="70" height="5" fill="#fff" rx="1" opacity="0.2"/>
  <rect x="40" y="56" width="100" height="6" fill="#374151" rx="2"/>
  <rect x="20" y="72" width="140" height="3" fill="#e5e7eb" rx="2"/>
  <rect x="20" y="80" width="140" height="3" fill="#e5e7eb" rx="2"/>
  <rect x="20" y="88" width="110" height="3" fill="#e5e7eb" rx="2"/>
  <rect x="20" y="102" width="140" height="3" fill="#e5e7eb" rx="2"/>
  <rect x="20" y="110" width="140" height="3" fill="#e5e7eb" rx="2"/>
  <rect x="20" y="118" width="120" height="3" fill="#e5e7eb" rx="2"/>
  <rect x="20" y="132" width="140" height="3" fill="#e5e7eb" rx="2"/>
  <rect x="20" y="140" width="140" height="3" fill="#e5e7eb" rx="2"/>
  <rect x="20" y="148" width="90" height="3" fill="#e5e7eb" rx="2"/>
  <rect x="20" y="162" width="140" height="3" fill="#e5e7eb" rx="2"/>
  <rect x="20" y="170" width="140" height="3" fill="#e5e7eb" rx="2"/>
  <rect x="20" y="178" width="100" height="3" fill="#e5e7eb" rx="2"/>
</svg>
