<svg xmlns="http://www.w3.org/2000/svg" width="180" height="240" viewBox="0 0 180 240">
  <rect width="180" height="240" fill="#f3f4f6" rx="4"/>
  <rect x="10" y="10" width="160" height="220" fill="#fff" rx="3" stroke="#e5e7eb" stroke-width="1"/>
  <rect x="20" y="20" width="100" height="7" fill="#d1d5db" rx="2"/>
  <rect x="20" y="34" width="60" height="4" fill="#e5e7eb" rx="2"/>
  <rect x="20" y="48" width="140" height="3" fill="#e5e7eb" rx="2"/>
  <rect x="20" y="56" width="140" height="3" fill="#e5e7eb" rx="2"/>
  <rect x="20" y="64" width="110" height="3" fill="#e5e7eb" rx="2"/>
  <rect x="20" y="78" width="140" height="8" fill="#d1d5db" rx="2"/>
  <rect x="20" y="94" width="140" height="3" fill="#e5e7eb" rx="2"/>
  <rect x="20" y="102" width="140" height="3" fill="#e5e7eb" rx="2"/>
  <rect x="20" y="110" width="90" height="3" fill="#e5e7eb" rx="2"/>
  <rect x="20" y="124" width="140" height="8" fill="#d1d5db" rx="2"/>
  <rect x="20" y="140" width="140" height="3" fill="#e5e7eb" rx="2"/>
  <rect x="20" y="148" width="140" height="3" fill="#e5e7eb" rx="2"/>
  <rect x="20" y="156" width="120" height="3" fill="#e5e7eb" rx="2"/>
  <rect x="20" y="170" width="140" height="28" fill="#f3f4f6" rx="2" stroke="#e5e7eb" stroke-width="1"/>
  <rect x="28" y="178" width="50" height="3" fill="#d1d5db" rx="1"/>
  <rect x="28" y="186" width="100" height="3" fill="#e5e7eb" rx="1"/>
</svg>
